  <svg xmlns="http://www.w3.org/2000/svg" xmlns:xlink="http://www.w3.org/1999/xlink" width="500" zoomAndPan="magnify"
    viewBox="0 0 375 374.999991" height="500" preserveAspectRatio="xMidYMid meet" version="1.0">
    <defs>
      <g />
      <clipPath id="id1">
        <path
          d="M 29.984375 29.984375 L 344.984375 29.984375 L 344.984375 344.984375 L 29.984375 344.984375 Z M 29.984375 29.984375 "
          clip-rule="nonzero" />
      </clipPath>
      <clipPath id="id2">
        <path d="M 51 149 L 78 149 L 78 164 L 51 164 Z M 51 149 " clip-rule="nonzero" />
      </clipPath>
      <clipPath id="id3">
        <path
          d="M 49.199219 158.882812 L 52.652344 146.609375 L 80.085938 154.324219 L 76.632812 166.597656 Z M 49.199219 158.882812 "
          clip-rule="nonzero" />
      </clipPath>
      <clipPath id="id4">
        <path
          d="M 49.199219 158.882812 L 52.652344 146.609375 L 80.085938 154.324219 L 76.632812 166.597656 Z M 49.199219 158.882812 "
          clip-rule="nonzero" />
      </clipPath>
      <clipPath id="id5">
        <path
          d="M 49.199219 158.882812 L 52.652344 146.609375 L 80.085938 154.324219 L 76.632812 166.597656 Z M 49.199219 158.882812 "
          clip-rule="nonzero" />
      </clipPath>
      <clipPath id="id6">
        <path d="M 288 235 L 315 235 L 315 249 L 288 249 Z M 288 235 " clip-rule="nonzero" />
      </clipPath>
      <clipPath id="id7">
        <path
          d="M 286.269531 244.261719 L 289.722656 231.988281 L 317.15625 239.703125 L 313.703125 251.976562 Z M 286.269531 244.261719 "
          clip-rule="nonzero" />
      </clipPath>
      <clipPath id="id8">
        <path
          d="M 286.269531 244.261719 L 289.722656 231.988281 L 317.15625 239.703125 L 313.703125 251.976562 Z M 286.269531 244.261719 "
          clip-rule="nonzero" />
      </clipPath>
      <clipPath id="id9">
        <path
          d="M 286.269531 244.261719 L 289.722656 231.988281 L 317.15625 239.703125 L 313.703125 251.976562 Z M 286.269531 244.261719 "
          clip-rule="nonzero" />
      </clipPath>
    </defs>
    <g clip-path="url(#id1)">
      <path fill="#3f3f41"
        d="M 345.003906 187.492188 C 345.003906 100.5 274.480469 29.980469 187.492188 29.980469 C 100.5 29.980469 29.984375 100.5 29.984375 187.492188 C 29.984375 274.480469 100.5 345 187.492188 345 C 274.480469 345 345.003906 274.480469 345.003906 187.492188 "
        fill-opacity="1" fill-rule="nonzero" />
    </g>
    <path fill="#202020"
      d="M 336.429688 187.492188 C 336.429688 105.234375 269.75 38.554688 187.492188 38.554688 C 105.238281 38.554688 38.554688 105.234375 38.554688 187.492188 C 38.554688 269.746094 105.238281 336.429688 187.492188 336.429688 C 269.75 336.429688 336.429688 269.746094 336.429688 187.492188 "
      fill-opacity="1" fill-rule="nonzero" />
    <path fill="#3f3f41"
      d="M 291.78125 187.492188 C 291.78125 129.894531 245.085938 83.203125 187.492188 83.203125 C 129.894531 83.203125 83.207031 129.894531 83.207031 187.492188 C 83.207031 245.085938 129.894531 291.777344 187.492188 291.777344 C 245.085938 291.777344 291.78125 245.085938 291.78125 187.492188 "
      fill-opacity="1" fill-rule="nonzero" />
    <path fill="#202020"
      d="M 285 187.492188 C 285 133.640625 241.34375 89.984375 187.492188 89.984375 C 133.640625 89.984375 89.988281 133.640625 89.988281 187.492188 C 89.988281 241.34375 133.640625 284.996094 187.492188 284.996094 C 241.34375 284.996094 285 241.34375 285 187.492188 "
      fill-opacity="1" fill-rule="nonzero" />

    <g id="vue-text" fill="#42b883" fill-opacity="1">
      <g fill="#42b883" fill-opacity="1">
        <g transform="translate(128.59156, 246.185817)">
          <g />
        </g>
      </g>
      <g fill="#42b883" fill-opacity="1">
        <g transform="translate(124.787141, 242.434805)">
          <g>
            <path
              d="M -10.921875 -1.3125 C -10.859375 -1.039062 -10.734375 -0.773438 -10.546875 -0.515625 C -10.359375 -0.265625 -10.132812 -0.0625 -9.875 0.09375 C -9.625 0.226562 -9.347656 0.328125 -9.046875 0.390625 C -8.710938 0.421875 -8.398438 0.398438 -8.109375 0.328125 C -7.828125 0.265625 -7.5625 0.140625 -7.3125 -0.046875 C -7.0625 -0.234375 -6.859375 -0.453125 -6.703125 -0.703125 C -6.554688 -0.960938 -6.457031 -1.253906 -6.40625 -1.578125 C -6.375 -1.890625 -6.382812 -2.1875 -6.4375 -2.46875 C -6.507812 -2.75 -6.640625 -3.015625 -6.828125 -3.265625 C -7.015625 -3.523438 -7.234375 -3.726562 -7.484375 -3.875 C -7.753906 -4.03125 -8.039062 -4.132812 -8.34375 -4.1875 C -8.664062 -4.226562 -8.96875 -4.207031 -9.25 -4.125 C -9.53125 -4.050781 -9.796875 -3.921875 -10.046875 -3.734375 C -10.296875 -3.546875 -10.5 -3.328125 -10.65625 -3.078125 C -10.8125 -2.835938 -10.921875 -2.550781 -10.984375 -2.21875 C -11.015625 -1.914062 -10.992188 -1.613281 -10.921875 -1.3125 Z M -11.25 0.015625 C -11.519531 -0.359375 -11.691406 -0.738281 -11.765625 -1.125 C -11.859375 -1.539062 -11.878906 -1.945312 -11.828125 -2.34375 C -11.765625 -2.757812 -11.625 -3.148438 -11.40625 -3.515625 C -11.195312 -3.878906 -10.914062 -4.191406 -10.5625 -4.453125 C -10.238281 -4.691406 -9.875 -4.863281 -9.46875 -4.96875 C -9.0625 -5.082031 -8.644531 -5.101562 -8.21875 -5.03125 C -7.789062 -4.976562 -7.398438 -4.84375 -7.046875 -4.625 C -6.691406 -4.425781 -6.378906 -4.148438 -6.109375 -3.796875 C -5.847656 -3.441406 -5.679688 -3.070312 -5.609375 -2.6875 C -5.515625 -2.25 -5.5 -1.835938 -5.5625 -1.453125 C -5.613281 -1.035156 -5.742188 -0.640625 -5.953125 -0.265625 C -6.171875 0.0976562 -6.445312 0.40625 -6.78125 0.65625 C -7.125 0.90625 -7.5 1.082031 -7.90625 1.1875 C -8.320312 1.289062 -8.742188 1.304688 -9.171875 1.234375 C -9.585938 1.171875 -9.972656 1.03125 -10.328125 0.8125 C -10.679688 0.625 -10.988281 0.359375 -11.25 0.015625 Z M -13.53125 1.703125 C -14.007812 1.054688 -14.347656 0.347656 -14.546875 -0.421875 C -14.722656 -1.160156 -14.757812 -1.953125 -14.65625 -2.796875 C -14.53125 -3.597656 -14.265625 -4.332031 -13.859375 -5 C -13.460938 -5.664062 -12.929688 -6.25 -12.265625 -6.75 C -11.628906 -7.21875 -10.9375 -7.550781 -10.1875 -7.75 C -9.445312 -7.945312 -8.648438 -7.988281 -7.796875 -7.875 C -6.984375 -7.757812 -6.238281 -7.5 -5.5625 -7.09375 C -4.875 -6.695312 -4.289062 -6.175781 -3.8125 -5.53125 C -3.332031 -4.882812 -3 -4.171875 -2.8125 -3.390625 C -2.632812 -2.648438 -2.601562 -1.863281 -2.71875 -1.03125 C -2.832031 -0.21875 -3.085938 0.519531 -3.484375 1.1875 C -3.890625 1.851562 -4.421875 2.429688 -5.078125 2.921875 C -5.722656 3.398438 -6.410156 3.734375 -7.140625 3.921875 C -7.878906 4.117188 -8.691406 4.160156 -9.578125 4.046875 C -10.367188 3.941406 -11.109375 3.6875 -11.796875 3.28125 C -12.460938 2.875 -13.039062 2.347656 -13.53125 1.703125 Z M -13.484375 1.671875 L -10.328125 0.84375 L -9.546875 4.015625 L -7.90625 1.203125 L -5.09375 2.890625 L -5.921875 -0.28125 L -2.75 -1.03125 L -5.5625 -2.703125 L -3.859375 -5.484375 L -7.03125 -4.671875 L -7.796875 -7.828125 L -9.453125 -5.03125 L -12.234375 -6.71875 L -11.4375 -3.546875 L -14.59375 -2.78125 L -11.796875 -1.125 Z M -13.484375 1.671875 " />
          </g>
        </g>
      </g>
      <g fill="#42b883" fill-opacity="1">
        <g transform="translate(117.212535, 231.927738)">
          <g />
        </g>
      </g>
      <g fill="#42b883" fill-opacity="1">
        <g transform="translate(114.388254, 227.290471)">
          <g>
            <path
              d="M -3.050781 -6.679688 L -13.992188 -3.542969 L -12.851562 -0.3125 L -4.839844 -3.164062 L -11.867188 1.699219 L -10.230469 4.480469 L -0.90625 -2.101562 Z M -3.050781 -6.679688 " />
          </g>
        </g>
      </g>
      <g fill="#42b883" fill-opacity="1">
        <g transform="translate(110.500023, 219.088071)">
          <g>
            <path
              d="M -1.804688 -5.808594 L -4.140625 -7.46875 L -13.503906 -3.851562 L -12.824219 -1.074219 L -4.328125 -3.964844 L -3.71875 -2.753906 L -12.25 -0.203125 L -11.082031 2.960938 L -1.75 -0.0664062 L -0.808594 -2.902344 Z M -1.804688 -5.808594 " />
          </g>
        </g>
      </g>
      <g fill="#42b883" fill-opacity="1">
        <g transform="translate(107.669056, 210.86118)">
          <g>
            <path
              d="M -0.746094 -3.65625 L -1.429688 -6.207031 L -3.859375 -5.4375 L -3.203125 -3.078125 L -5.292969 -2.523438 L -6.089844 -4.929688 L -8.324219 -4.375 L -7.890625 -1.960938 L -9.675781 -1.515625 L -10.238281 -4.046875 L -12.746094 -3.589844 L -12 -0.527344 L -11.300781 1.953125 L -0.109375 -0.632812 Z M -0.746094 -3.65625 " />
          </g>
        </g>
      </g>
      <g fill="#42b883" fill-opacity="1">
        <g transform="translate(106.08758, 204.452895)">
          <g />
        </g>
      </g>
      <g fill="#42b883" fill-opacity="1">
        <g transform="translate(104.947798, 199.23353)">
          <g>
            <path
              d="M -8.4375 -7.078125 C -8.53125 -6.804688 -8.566406 -6.507812 -8.546875 -6.1875 C -8.523438 -5.875 -8.453125 -5.585938 -8.328125 -5.328125 C -8.179688 -5.054688 -8 -4.816406 -7.78125 -4.609375 C -7.53125 -4.398438 -7.265625 -4.242188 -6.984375 -4.140625 C -6.703125 -4.046875 -6.40625 -4.007812 -6.09375 -4.03125 C -5.78125 -4.050781 -5.492188 -4.125 -5.234375 -4.25 C -4.972656 -4.382812 -4.726562 -4.570312 -4.5 -4.8125 C -4.3125 -5.050781 -4.164062 -5.304688 -4.0625 -5.578125 C -3.957031 -5.859375 -3.914062 -6.15625 -3.9375 -6.46875 C -3.957031 -6.789062 -4.035156 -7.078125 -4.171875 -7.328125 C -4.304688 -7.609375 -4.484375 -7.851562 -4.703125 -8.0625 C -4.953125 -8.269531 -5.210938 -8.421875 -5.484375 -8.515625 C -5.765625 -8.609375 -6.0625 -8.644531 -6.375 -8.625 C -6.6875 -8.601562 -6.972656 -8.53125 -7.234375 -8.40625 C -7.503906 -8.28125 -7.753906 -8.097656 -7.984375 -7.859375 C -8.171875 -7.617188 -8.320312 -7.359375 -8.4375 -7.078125 Z M -9.421875 -6.140625 C -9.453125 -6.597656 -9.394531 -7.007812 -9.25 -7.375 C -9.09375 -7.78125 -8.882812 -8.128906 -8.625 -8.421875 C -8.351562 -8.742188 -8.023438 -9 -7.640625 -9.1875 C -7.265625 -9.375 -6.859375 -9.476562 -6.421875 -9.5 C -6.015625 -9.53125 -5.613281 -9.476562 -5.21875 -9.34375 C -4.820312 -9.207031 -4.460938 -8.992188 -4.140625 -8.703125 C -3.816406 -8.429688 -3.566406 -8.109375 -3.390625 -7.734375 C -3.203125 -7.367188 -3.09375 -6.960938 -3.0625 -6.515625 C -3.039062 -6.078125 -3.101562 -5.675781 -3.25 -5.3125 C -3.394531 -4.894531 -3.601562 -4.535156 -3.875 -4.234375 C -4.144531 -3.929688 -4.46875 -3.6875 -4.84375 -3.5 C -5.21875 -3.3125 -5.613281 -3.203125 -6.03125 -3.171875 C -6.457031 -3.148438 -6.867188 -3.207031 -7.265625 -3.34375 C -7.671875 -3.476562 -8.035156 -3.679688 -8.359375 -3.953125 C -8.671875 -4.242188 -8.921875 -4.578125 -9.109375 -4.953125 C -9.296875 -5.316406 -9.398438 -5.710938 -9.421875 -6.140625 Z M -12.265625 -5.953125 C -12.316406 -6.753906 -12.210938 -7.535156 -11.953125 -8.296875 C -11.703125 -9.015625 -11.300781 -9.691406 -10.75 -10.328125 C -10.195312 -10.953125 -9.570312 -11.429688 -8.875 -11.765625 C -8.175781 -12.097656 -7.410156 -12.289062 -6.578125 -12.34375 C -5.785156 -12.394531 -5.03125 -12.300781 -4.3125 -12.0625 C -3.59375 -11.820312 -2.898438 -11.421875 -2.234375 -10.859375 C -1.617188 -10.316406 -1.132812 -9.691406 -0.78125 -8.984375 C -0.425781 -8.273438 -0.222656 -7.515625 -0.171875 -6.703125 C -0.128906 -5.898438 -0.238281 -5.117188 -0.5 -4.359375 C -0.75 -3.648438 -1.15625 -2.984375 -1.71875 -2.359375 C -2.257812 -1.734375 -2.878906 -1.25 -3.578125 -0.90625 C -4.273438 -0.5625 -5.03125 -0.363281 -5.84375 -0.3125 C -6.65625 -0.257812 -7.421875 -0.351562 -8.140625 -0.59375 C -8.867188 -0.84375 -9.566406 -1.253906 -10.234375 -1.828125 C -10.835938 -2.359375 -11.316406 -2.972656 -11.671875 -3.671875 C -12.015625 -4.378906 -12.210938 -5.140625 -12.265625 -5.953125 Z M -12.203125 -5.96875 L -9.109375 -4.9375 L -10.203125 -1.859375 L -7.28125 -3.3125 L -5.859375 -0.359375 L -4.8125 -3.46875 L -1.75 -2.375 L -3.1875 -5.296875 L -0.234375 -6.703125 L -3.34375 -7.75 L -2.265625 -10.828125 L -5.171875 -9.375 L -6.59375 -12.296875 L -7.640625 -9.21875 L -10.71875 -10.3125 L -9.265625 -7.390625 Z M -12.203125 -5.96875 " />
          </g>
        </g>
      </g>
      <g fill="#42b883" fill-opacity="1">
        <g transform="translate(104.34073, 186.294592)">
          <g />
        </g>
      </g>
      <g fill="#42b883" fill-opacity="1">
        <g transform="translate(104.505736, 180.868127)">
          <g>
            <path
              d="M 1.089844 -7.261719 L -9.785156 -10.609375 L -10.597656 -7.28125 L -2.328125 -5.292969 L -10.867188 -5.058594 L -11.019531 -1.832031 L 0.390625 -2.253906 Z M 1.089844 -7.261719 " />
          </g>
        </g>
      </g>
      <g fill="#42b883" fill-opacity="1">
        <g transform="translate(105.728102, 171.873093)">
          <g>
            <path
              d="M 1.660156 -5.851562 L 0.609375 -8.519531 L -9.210938 -10.601562 L -10.15625 -7.902344 L -1.460938 -5.683594 L -1.613281 -4.335938 L -10.152344 -6.863281 L -10.898438 -3.570312 L -1.429688 -1.011719 L 0.910156 -2.875 Z M 1.660156 -5.851562 " />
          </g>
        </g>
      </g>
      <g fill="#42b883" fill-opacity="1">
        <g transform="translate(107.847825, 163.435693)">
          <g>
            <path
              d="M 1.371094 -3.46875 L 2.191406 -5.980469 L -0.261719 -6.660156 L -1.003906 -4.328125 L -3.054688 -5.003906 L -2.410156 -7.457031 L -4.585938 -8.210938 L -5.539062 -5.953125 L -7.277344 -6.554688 L -6.367188 -8.980469 L -8.71875 -9.964844 L -9.765625 -6.996094 L -10.535156 -4.535156 L 0.253906 -0.589844 Z M 1.371094 -3.46875 " />
          </g>
        </g>
      </g>
      <g fill="#42b883" fill-opacity="1">
        <g transform="translate(110.023929, 157.202814)">
          <g />
        </g>
      </g>
      <g fill="#42b883" fill-opacity="1">
        <g transform="translate(111.91826, 152.208398)">
          <g>
            <path
              d="M -3.203125 -10.53125 C -3.429688 -10.363281 -3.625 -10.140625 -3.78125 -9.859375 C -3.9375 -9.585938 -4.03125 -9.300781 -4.0625 -9 C -4.09375 -8.707031 -4.078125 -8.414062 -4.015625 -8.125 C -3.910156 -7.800781 -3.765625 -7.519531 -3.578125 -7.28125 C -3.398438 -7.050781 -3.175781 -6.863281 -2.90625 -6.71875 C -2.632812 -6.5625 -2.351562 -6.460938 -2.0625 -6.421875 C -1.769531 -6.390625 -1.46875 -6.414062 -1.15625 -6.5 C -0.863281 -6.59375 -0.59375 -6.722656 -0.34375 -6.890625 C -0.113281 -7.078125 0.078125 -7.304688 0.234375 -7.578125 C 0.390625 -7.859375 0.484375 -8.140625 0.515625 -8.421875 C 0.546875 -8.722656 0.523438 -9.019531 0.453125 -9.3125 C 0.359375 -9.632812 0.21875 -9.910156 0.03125 -10.140625 C -0.144531 -10.367188 -0.367188 -10.5625 -0.640625 -10.71875 C -0.910156 -10.863281 -1.191406 -10.957031 -1.484375 -11 C -1.773438 -11.039062 -2.082031 -11.019531 -2.40625 -10.9375 C -2.6875 -10.84375 -2.953125 -10.707031 -3.203125 -10.53125 Z M -4.546875 -10.28125 C -4.316406 -10.675781 -4.046875 -10.988281 -3.734375 -11.21875 C -3.378906 -11.476562 -3.007812 -11.660156 -2.625 -11.765625 C -2.21875 -11.890625 -1.804688 -11.925781 -1.390625 -11.875 C -0.972656 -11.820312 -0.570312 -11.6875 -0.1875 -11.46875 C 0.164062 -11.269531 0.472656 -11.003906 0.734375 -10.671875 C 0.992188 -10.335938 1.175781 -9.960938 1.28125 -9.546875 C 1.40625 -9.140625 1.4375 -8.734375 1.375 -8.328125 C 1.34375 -7.921875 1.21875 -7.523438 1 -7.140625 C 0.78125 -6.753906 0.507812 -6.445312 0.1875 -6.21875 C -0.164062 -5.945312 -0.535156 -5.765625 -0.921875 -5.671875 C -1.316406 -5.546875 -1.722656 -5.507812 -2.140625 -5.5625 C -2.566406 -5.613281 -2.960938 -5.742188 -3.328125 -5.953125 C -3.691406 -6.160156 -4.003906 -6.425781 -4.265625 -6.75 C -4.523438 -7.082031 -4.710938 -7.460938 -4.828125 -7.890625 C -4.941406 -8.296875 -4.972656 -8.703125 -4.921875 -9.109375 C -4.878906 -9.515625 -4.753906 -9.90625 -4.546875 -10.28125 Z M -7.015625 -11.6875 C -6.617188 -12.382812 -6.109375 -12.984375 -5.484375 -13.484375 C -4.878906 -13.941406 -4.171875 -14.285156 -3.359375 -14.515625 C -2.566406 -14.734375 -1.785156 -14.796875 -1.015625 -14.703125 C -0.242188 -14.609375 0.503906 -14.359375 1.234375 -13.953125 C 1.921875 -13.554688 2.5 -13.054688 2.96875 -12.453125 C 3.445312 -11.859375 3.8125 -11.140625 4.0625 -10.296875 C 4.28125 -9.523438 4.34375 -8.742188 4.25 -7.953125 C 4.15625 -7.171875 3.910156 -6.425781 3.515625 -5.71875 C 3.117188 -5.019531 2.601562 -4.421875 1.96875 -3.921875 C 1.375 -3.460938 0.671875 -3.125 -0.140625 -2.90625 C -0.941406 -2.6875 -1.726562 -2.617188 -2.5 -2.703125 C -3.28125 -2.796875 -4.019531 -3.046875 -4.71875 -3.453125 C -5.425781 -3.847656 -6.019531 -4.34375 -6.5 -4.9375 C -6.976562 -5.539062 -7.332031 -6.269531 -7.5625 -7.125 C -7.789062 -7.882812 -7.859375 -8.660156 -7.765625 -9.453125 C -7.671875 -10.234375 -7.421875 -10.976562 -7.015625 -11.6875 Z M -6.953125 -11.65625 L -4.953125 -9.109375 L -7.53125 -7.109375 L -4.296875 -6.75 L -4.703125 -3.5 L -2.15625 -5.53125 L -0.171875 -2.921875 L 0.21875 -6.171875 L 3.46875 -5.75 L 1.4375 -8.3125 L 4.015625 -10.296875 L 0.78125 -10.671875 L 1.203125 -13.90625 L -1.359375 -11.890625 L -3.34375 -14.484375 L -3.734375 -11.25 Z M -6.953125 -11.65625 " />
          </g>
        </g>
      </g>
      <g fill="#42b883" fill-opacity="1">
        <g transform="translate(118.476141, 141.036946)">
          <g />
        </g>
      </g>
      <g fill="#42b883" fill-opacity="1">
        <g transform="translate(121.57635, 136.581666)">
          <g>
            <path
              d="M 4.878906 -5.488281 L -2.402344 -14.230469 L -4.902344 -11.886719 L 0.941406 -5.703125 L -6.34375 -10.171875 L -8.230469 -7.550781 L 1.558594 -1.675781 Z M 4.878906 -5.488281 " />
          </g>
        </g>
      </g>
      <g fill="#42b883" fill-opacity="1">
        <g transform="translate(127.512916, 129.713295)">
          <g>
            <path
              d="M 4.585938 -3.996094 L 5.160156 -6.804688 L -1.925781 -13.910156 L -4.195312 -12.167969 L 1.878906 -5.558594 L 1.015625 -4.515625 L -4.757812 -11.292969 L -7.183594 -8.941406 L -0.644531 -1.628906 L 2.332031 -1.910156 Z M 4.585938 -3.996094 " />
          </g>
        </g>
      </g>
      <g fill="#42b883" fill-opacity="1">
        <g transform="translate(133.894986, 123.802969)">
          <g>
            <path
              d="M 3.042969 -2.15625 L 5.101562 -3.8125 L 3.417969 -5.722656 L 1.523438 -4.175781 L 0.171875 -5.863281 L 2.054688 -7.5625 L 0.644531 -9.382812 L -1.390625 -8.011719 L -2.515625 -9.464844 L -0.429688 -11 L -1.859375 -13.109375 L -4.359375 -11.191406 L -6.347656 -9.550781 L 0.535156 -0.355469 Z M 3.042969 -2.15625 " />
          </g>
        </g>
      </g>
      <g fill="#42b883" fill-opacity="1">
        <g transform="translate(139.123231, 119.768909)">
          <g />
        </g>
      </g>
      <g fill="#42b883" fill-opacity="1">
        <g transform="translate(143.4365, 116.619765)">
          <g>
            <path
              d="M 3.078125 -10.578125 C 2.785156 -10.554688 2.5 -10.472656 2.21875 -10.328125 C 1.9375 -10.179688 1.703125 -9.992188 1.515625 -9.765625 C 1.328125 -9.523438 1.179688 -9.265625 1.078125 -8.984375 C 0.992188 -8.660156 0.960938 -8.351562 0.984375 -8.0625 C 1.015625 -7.769531 1.097656 -7.484375 1.234375 -7.203125 C 1.378906 -6.929688 1.5625 -6.695312 1.78125 -6.5 C 2.007812 -6.3125 2.28125 -6.164062 2.59375 -6.0625 C 2.882812 -5.976562 3.175781 -5.945312 3.46875 -5.96875 C 3.769531 -5.988281 4.0625 -6.070312 4.34375 -6.21875 C 4.625 -6.363281 4.851562 -6.550781 5.03125 -6.78125 C 5.226562 -7.007812 5.378906 -7.269531 5.484375 -7.5625 C 5.566406 -7.875 5.59375 -8.175781 5.5625 -8.46875 C 5.539062 -8.757812 5.457031 -9.039062 5.3125 -9.3125 C 5.175781 -9.59375 4.992188 -9.828125 4.765625 -10.015625 C 4.546875 -10.210938 4.28125 -10.367188 3.96875 -10.484375 C 3.675781 -10.554688 3.378906 -10.585938 3.078125 -10.578125 Z M 1.8125 -11.109375 C 2.21875 -11.316406 2.613281 -11.425781 3 -11.4375 C 3.4375 -11.457031 3.84375 -11.40625 4.21875 -11.28125 C 4.625 -11.164062 4.988281 -10.972656 5.3125 -10.703125 C 5.644531 -10.429688 5.910156 -10.097656 6.109375 -9.703125 C 6.296875 -9.347656 6.40625 -8.957031 6.4375 -8.53125 C 6.476562 -8.113281 6.425781 -7.695312 6.28125 -7.28125 C 6.164062 -6.894531 5.972656 -6.539062 5.703125 -6.21875 C 5.441406 -5.894531 5.113281 -5.628906 4.71875 -5.421875 C 4.332031 -5.222656 3.945312 -5.117188 3.5625 -5.109375 C 3.113281 -5.078125 2.695312 -5.117188 2.3125 -5.234375 C 1.925781 -5.359375 1.566406 -5.554688 1.234375 -5.828125 C 0.910156 -6.109375 0.648438 -6.4375 0.453125 -6.8125 C 0.265625 -7.1875 0.148438 -7.582031 0.109375 -8 C 0.078125 -8.414062 0.125 -8.828125 0.25 -9.234375 C 0.382812 -9.648438 0.585938 -10.015625 0.859375 -10.328125 C 1.117188 -10.648438 1.4375 -10.910156 1.8125 -11.109375 Z M 0.5 -13.625 C 1.21875 -13.988281 1.976562 -14.207031 2.78125 -14.28125 C 3.519531 -14.351562 4.300781 -14.257812 5.125 -14 C 5.894531 -13.75 6.578125 -13.375 7.171875 -12.875 C 7.773438 -12.375 8.265625 -11.753906 8.640625 -11.015625 C 9.003906 -10.304688 9.222656 -9.570312 9.296875 -8.8125 C 9.367188 -8.050781 9.28125 -7.253906 9.03125 -6.421875 C 8.789062 -5.640625 8.414062 -4.945312 7.90625 -4.34375 C 7.394531 -3.738281 6.78125 -3.25 6.0625 -2.875 C 5.351562 -2.507812 4.597656 -2.289062 3.796875 -2.21875 C 3.035156 -2.15625 2.253906 -2.253906 1.453125 -2.515625 C 0.671875 -2.765625 -0.015625 -3.140625 -0.609375 -3.640625 C -1.210938 -4.140625 -1.703125 -4.753906 -2.078125 -5.484375 C -2.441406 -6.203125 -2.660156 -6.941406 -2.734375 -7.703125 C -2.804688 -8.460938 -2.710938 -9.257812 -2.453125 -10.09375 C -2.222656 -10.863281 -1.847656 -11.550781 -1.328125 -12.15625 C -0.828125 -12.757812 -0.21875 -13.25 0.5 -13.625 Z M 0.53125 -13.578125 L 0.84375 -10.328125 L -2.4375 -10.078125 L 0.09375 -8 L -2.03125 -5.5 L 1.21875 -5.796875 L 1.453125 -2.5625 L 3.5625 -5.0625 L 6.03125 -2.921875 L 5.734375 -6.1875 L 8.984375 -6.4375 L 6.484375 -8.515625 L 8.59375 -11 L 5.359375 -10.71875 L 5.09375 -13.953125 L 3.015625 -11.453125 Z M 0.53125 -13.578125 " />
          </g>
        </g>
      </g>
      <g fill="#42b883" fill-opacity="1">
        <g transform="translate(155.03162, 110.841532)">
          <g />
        </g>
      </g>
      <g fill="#42b883" fill-opacity="1">
        <g transform="translate(160.060438, 108.802677)">
          <g>
            <path
              d="M 7.085938 -1.933594 L 5.757812 -13.234375 L 2.382812 -12.632812 L 3.902344 -4.265625 L 0.242188 -11.984375 L -2.769531 -10.820312 L 2.222656 -0.554688 Z M 7.085938 -1.933594 " />
          </g>
        </g>
      </g>
      <g fill="#42b883" fill-opacity="1">
        <g transform="translate(168.785001, 106.290184)">
          <g>
            <path
              d="M 6.023438 -0.839844 L 8.039062 -2.882812 L 5.980469 -12.707031 L 3.128906 -12.484375 L 4.609375 -3.632812 L 3.316406 -3.226562 L 2.179688 -12.058594 L -1.132812 -11.414062 L 0.347656 -1.71875 L 2.996094 -0.328125 Z M 6.023438 -0.839844 " />
          </g>
        </g>
      </g>
      <g fill="#42b883" fill-opacity="1">
        <g transform="translate(177.357881, 104.824409)">
          <g>
            <path
              d="M 3.726562 -0.144531 L 6.355469 -0.40625 L 5.988281 -2.929688 L 3.554688 -2.664062 L 3.347656 -4.816406 L 5.851562 -5.214844 L 5.664062 -7.507812 L 3.210938 -7.46875 L 3.058594 -9.304688 L 5.648438 -9.449219 L 5.601562 -12 L 2.457031 -11.757812 L -0.101562 -11.46875 L 0.640625 -0.00390625 Z M 3.726562 -0.144531 " />
          </g>
        </g>
      </g>
      <g fill="#42b883" fill-opacity="1">
        <g transform="translate(183.942292, 104.299046)">
          <g />
        </g>
      </g>
      <g fill="#42b883" fill-opacity="1">
        <g transform="translate(189.274399, 104.01669)">
          <g>
            <path
              d="M 8.34375 -7.171875 C 8.101562 -7.316406 7.820312 -7.40625 7.5 -7.4375 C 7.1875 -7.46875 6.882812 -7.4375 6.59375 -7.34375 C 6.3125 -7.25 6.046875 -7.113281 5.796875 -6.9375 C 5.554688 -6.71875 5.367188 -6.476562 5.234375 -6.21875 C 5.097656 -5.96875 5.015625 -5.6875 4.984375 -5.375 C 4.953125 -5.0625 4.972656 -4.765625 5.046875 -4.484375 C 5.128906 -4.203125 5.269531 -3.929688 5.46875 -3.671875 C 5.675781 -3.441406 5.910156 -3.25 6.171875 -3.09375 C 6.429688 -2.957031 6.71875 -2.875 7.03125 -2.84375 C 7.351562 -2.8125 7.648438 -2.835938 7.921875 -2.921875 C 8.203125 -3.015625 8.460938 -3.15625 8.703125 -3.34375 C 8.953125 -3.5625 9.144531 -3.796875 9.28125 -4.046875 C 9.425781 -4.304688 9.515625 -4.59375 9.546875 -4.90625 C 9.578125 -5.21875 9.550781 -5.515625 9.46875 -5.796875 C 9.382812 -6.078125 9.238281 -6.347656 9.03125 -6.609375 C 8.832031 -6.828125 8.601562 -7.015625 8.34375 -7.171875 Z M 7.578125 -8.3125 C 8.035156 -8.257812 8.429688 -8.132812 8.765625 -7.9375 C 9.140625 -7.71875 9.453125 -7.453125 9.703125 -7.140625 C 9.972656 -6.828125 10.171875 -6.46875 10.296875 -6.0625 C 10.421875 -5.65625 10.460938 -5.234375 10.421875 -4.796875 C 10.378906 -4.390625 10.257812 -4 10.0625 -3.625 C 9.863281 -3.257812 9.59375 -2.941406 9.25 -2.671875 C 8.925781 -2.398438 8.566406 -2.207031 8.171875 -2.09375 C 7.785156 -1.96875 7.367188 -1.925781 6.921875 -1.96875 C 6.484375 -2.007812 6.097656 -2.132812 5.765625 -2.34375 C 5.367188 -2.550781 5.050781 -2.8125 4.8125 -3.125 C 4.550781 -3.445312 4.359375 -3.804688 4.234375 -4.203125 C 4.109375 -4.609375 4.066406 -5.019531 4.109375 -5.4375 C 4.148438 -5.863281 4.269531 -6.265625 4.46875 -6.640625 C 4.664062 -7.015625 4.929688 -7.332031 5.265625 -7.59375 C 5.585938 -7.863281 5.953125 -8.0625 6.359375 -8.1875 C 6.742188 -8.3125 7.148438 -8.351562 7.578125 -8.3125 Z M 7.875 -11.140625 C 8.664062 -11.054688 9.414062 -10.828125 10.125 -10.453125 C 10.789062 -10.085938 11.390625 -9.582031 11.921875 -8.9375 C 12.441406 -8.300781 12.816406 -7.609375 13.046875 -6.859375 C 13.273438 -6.117188 13.34375 -5.332031 13.25 -4.5 C 13.175781 -3.707031 12.957031 -2.972656 12.59375 -2.296875 C 12.238281 -1.617188 11.726562 -1 11.0625 -0.4375 C 10.4375 0.0703125 9.75 0.441406 9 0.671875 C 8.226562 0.910156 7.441406 0.988281 6.640625 0.90625 C 5.835938 0.820312 5.09375 0.585938 4.40625 0.203125 C 3.726562 -0.148438 3.125 -0.648438 2.59375 -1.296875 C 2.070312 -1.941406 1.695312 -2.640625 1.46875 -3.390625 C 1.25 -4.140625 1.175781 -4.914062 1.25 -5.71875 C 1.332031 -6.53125 1.550781 -7.269531 1.90625 -7.9375 C 2.269531 -8.613281 2.785156 -9.234375 3.453125 -9.796875 C 4.078125 -10.304688 4.769531 -10.679688 5.53125 -10.921875 C 6.28125 -11.148438 7.0625 -11.222656 7.875 -11.140625 Z M 7.859375 -11.078125 L 6.34375 -8.203125 L 3.46875 -9.765625 L 4.453125 -6.65625 L 1.3125 -5.71875 L 4.203125 -4.203125 L 2.609375 -1.328125 L 5.734375 -2.296875 L 6.65625 0.84375 L 8.171875 -2.046875 L 11.03125 -0.46875 L 10.09375 -3.609375 L 13.21875 -4.515625 L 10.34375 -6.0625 L 11.890625 -8.90625 L 8.78125 -7.953125 Z M 7.859375 -11.078125 " />
          </g>
        </g>
      </g>
      <g fill="#42b883" fill-opacity="1">
        <g transform="translate(202.144364, 105.50723)">
          <g />
        </g>
      </g>
      <g fill="#42b883" fill-opacity="1">
        <g transform="translate(207.46934, 106.545866)">
          <g>
            <path
              d="M 6.992188 2.25 L 12.050781 -7.945312 L 8.894531 -9.28125 L 5.597656 -1.441406 L 6.746094 -9.910156 L 3.585938 -10.578125 L 2.164062 0.75 Z M 6.992188 2.25 " />
          </g>
        </g>
      </g>
      <g fill="#42b883" fill-opacity="1">
        <g transform="translate(216.150906, 109.204889)">
          <g>
            <path
              d="M 5.507812 2.585938 L 8.308594 1.976562 L 11.949219 -7.378906 L 9.4375 -8.75 L 5.847656 -0.523438 L 4.542969 -0.890625 L 8.410156 -8.910156 L 5.28125 -10.179688 L 1.230469 -1.246094 L 2.6875 1.359375 Z M 5.507812 2.585938 " />
          </g>
        </g>
      </g>
      <g fill="#42b883" fill-opacity="1">
        <g transform="translate(224.132126, 112.65884)">
          <g>
            <path
              d="M 3.203125 1.914062 L 5.546875 3.128906 L 6.617188 0.816406 L 4.433594 -0.292969 L 5.433594 -2.207031 L 7.746094 -1.171875 L 8.84375 -3.199219 L 6.765625 -4.503906 L 7.644531 -6.121094 L 9.890625 -4.832031 L 11.242188 -6.992188 L 8.480469 -8.507812 L 6.175781 -9.664062 L 0.539062 0.347656 Z M 3.203125 1.914062 " />
          </g>
        </g>
      </g>
      <g fill="#42b883" fill-opacity="1">
        <g transform="translate(229.936685, 115.813423)">
          <g />
        </g>
      </g>
      <g fill="#42b883" fill-opacity="1">
        <g transform="translate(234.556869, 118.489032)">
          <g>
            <path
              d="M 10.921875 -1.46875 C 10.785156 -1.707031 10.59375 -1.925781 10.34375 -2.125 C 10.101562 -2.332031 9.835938 -2.476562 9.546875 -2.5625 C 9.253906 -2.625 8.957031 -2.648438 8.65625 -2.640625 C 8.332031 -2.585938 8.039062 -2.488281 7.78125 -2.34375 C 7.53125 -2.207031 7.304688 -2.019531 7.109375 -1.78125 C 6.910156 -1.539062 6.769531 -1.273438 6.6875 -0.984375 C 6.601562 -0.703125 6.570312 -0.398438 6.59375 -0.078125 C 6.632812 0.222656 6.722656 0.507812 6.859375 0.78125 C 7.003906 1.03125 7.195312 1.253906 7.4375 1.453125 C 7.6875 1.660156 7.953125 1.800781 8.234375 1.875 C 8.523438 1.945312 8.820312 1.976562 9.125 1.96875 C 9.445312 1.914062 9.734375 1.816406 9.984375 1.671875 C 10.242188 1.535156 10.472656 1.347656 10.671875 1.109375 C 10.867188 0.867188 11.007812 0.601562 11.09375 0.3125 C 11.175781 0.03125 11.207031 -0.269531 11.1875 -0.59375 C 11.144531 -0.894531 11.054688 -1.1875 10.921875 -1.46875 Z M 10.890625 -2.828125 C 11.242188 -2.535156 11.507812 -2.210938 11.6875 -1.859375 C 11.875 -1.472656 11.988281 -1.082031 12.03125 -0.6875 C 12.09375 -0.269531 12.0625 0.140625 11.9375 0.546875 C 11.8125 0.953125 11.613281 1.328125 11.34375 1.671875 C 11.09375 1.984375 10.785156 2.238281 10.421875 2.4375 C 10.054688 2.644531 9.648438 2.769531 9.203125 2.8125 C 8.785156 2.863281 8.382812 2.828125 8 2.703125 C 7.601562 2.609375 7.226562 2.421875 6.875 2.140625 C 6.53125 1.859375 6.273438 1.539062 6.109375 1.1875 C 5.898438 0.789062 5.773438 0.398438 5.734375 0.015625 C 5.691406 -0.398438 5.726562 -0.8125 5.84375 -1.21875 C 5.957031 -1.625 6.144531 -1.988281 6.40625 -2.3125 C 6.675781 -2.644531 6.992188 -2.914062 7.359375 -3.125 C 7.734375 -3.332031 8.132812 -3.453125 8.5625 -3.484375 C 8.976562 -3.535156 9.390625 -3.5 9.796875 -3.375 C 10.191406 -3.269531 10.554688 -3.085938 10.890625 -2.828125 Z M 12.671875 -5.046875 C 13.296875 -4.535156 13.800781 -3.929688 14.1875 -3.234375 C 14.539062 -2.566406 14.765625 -1.8125 14.859375 -0.96875 C 14.953125 -0.144531 14.890625 0.632812 14.671875 1.375 C 14.453125 2.125 14.078125 2.820312 13.546875 3.46875 C 13.054688 4.09375 12.476562 4.585938 11.8125 4.953125 C 11.144531 5.316406 10.378906 5.554688 9.515625 5.671875 C 8.710938 5.765625 7.925781 5.695312 7.15625 5.46875 C 6.40625 5.257812 5.710938 4.898438 5.078125 4.390625 C 4.453125 3.890625 3.945312 3.28125 3.5625 2.5625 C 3.207031 1.90625 2.984375 1.160156 2.890625 0.328125 C 2.804688 -0.492188 2.867188 -1.28125 3.078125 -2.03125 C 3.296875 -2.78125 3.65625 -3.472656 4.15625 -4.109375 C 4.664062 -4.734375 5.253906 -5.226562 5.921875 -5.59375 C 6.597656 -5.96875 7.367188 -6.207031 8.234375 -6.3125 C 9.035156 -6.414062 9.820312 -6.359375 10.59375 -6.140625 C 11.34375 -5.921875 12.035156 -5.554688 12.671875 -5.046875 Z M 12.640625 -5 L 9.78125 -3.40625 L 8.234375 -6.28125 L 7.359375 -3.140625 L 4.21875 -4.078125 L 5.8125 -1.21875 L 2.921875 0.3125 L 6.0625 1.21875 L 5.109375 4.34375 L 7.96875 2.765625 L 9.515625 5.625 L 10.421875 2.5 L 13.53125 3.4375 L 11.96875 0.578125 L 14.828125 -0.96875 L 11.6875 -1.859375 Z M 12.640625 -5 " />
          </g>
        </g>
      </g>
      <g fill="#42b883" fill-opacity="1">
        <g transform="translate(244.525592, 126.765104)">
          <g />
        </g>
      </g>
      <g fill="#42b883" fill-opacity="1">
        <g transform="translate(248.418146, 130.543602)">
          <g>
            <path
              d="M 4.628906 5.703125 L 14.433594 -0.0742188 L 12.519531 -2.917969 L 5.476562 1.847656 L 11.0625 -4.617188 L 8.78125 -6.902344 L 1.402344 1.808594 Z M 4.628906 5.703125 " />
          </g>
        </g>
      </g>
      <g fill="#42b883" fill-opacity="1">
        <g transform="translate(254.23975, 137.511565)">
          <g>
            <path
              d="M 3.203125 5.171875 L 5.882812 6.191406 L 14.039062 0.34375 L 12.683594 -2.175781 L 5.183594 2.753906 L 4.292969 1.734375 L 11.910156 -2.871094 L 9.984375 -5.644531 L 1.710938 -0.375 L 1.507812 2.609375 Z M 3.203125 5.171875 " />
          </g>
        </g>
      </g>
      <g fill="#42b883" fill-opacity="1">
        <g transform="translate(259.038778, 144.76386)">
          <g>
            <path
              d="M 1.636719 3.351562 L 2.9375 5.648438 L 5.097656 4.296875 L 3.875 2.175781 L 5.757812 1.117188 L 7.128906 3.246094 L 9.15625 2.148438 L 8.128906 -0.078125 L 9.746094 -0.957031 L 10.925781 1.351562 L 13.238281 0.28125 L 11.75 -2.496094 L 10.449219 -4.722656 L 0.261719 0.585938 Z M 1.636719 3.351562 " />
          </g>
        </g>
      </g>
      <g fill="#42b883" fill-opacity="1">
        <g transform="translate(262.180557, 150.575462)">
          <g />
        </g>
      </g>
      <g fill="#42b883" fill-opacity="1">
        <g transform="translate(264.589045, 155.340308)">
          <g>
            <path
              d="M 9.9375 4.734375 C 9.957031 4.441406 9.914062 4.144531 9.8125 3.84375 C 9.71875 3.539062 9.578125 3.285156 9.390625 3.078125 C 9.191406 2.859375 8.957031 2.671875 8.6875 2.515625 C 8.394531 2.378906 8.097656 2.296875 7.796875 2.265625 C 7.503906 2.242188 7.210938 2.28125 6.921875 2.375 C 6.617188 2.476562 6.359375 2.625 6.140625 2.8125 C 5.921875 3.007812 5.734375 3.25 5.578125 3.53125 C 5.441406 3.8125 5.351562 4.101562 5.3125 4.40625 C 5.289062 4.6875 5.328125 4.976562 5.421875 5.28125 C 5.523438 5.582031 5.671875 5.84375 5.859375 6.0625 C 6.066406 6.289062 6.304688 6.476562 6.578125 6.625 C 6.878906 6.769531 7.171875 6.851562 7.453125 6.875 C 7.742188 6.894531 8.039062 6.851562 8.34375 6.75 C 8.632812 6.65625 8.894531 6.515625 9.125 6.328125 C 9.351562 6.140625 9.539062 5.898438 9.6875 5.609375 C 9.820312 5.335938 9.90625 5.046875 9.9375 4.734375 Z M 10.671875 3.578125 C 10.804688 4.015625 10.847656 4.425781 10.796875 4.8125 C 10.753906 5.238281 10.644531 5.632812 10.46875 6 C 10.28125 6.375 10.023438 6.695312 9.703125 6.96875 C 9.390625 7.25 9.023438 7.457031 8.609375 7.59375 C 8.222656 7.71875 7.816406 7.765625 7.390625 7.734375 C 6.960938 7.703125 6.5625 7.585938 6.1875 7.390625 C 5.800781 7.203125 5.476562 6.945312 5.21875 6.625 C 4.945312 6.320312 4.738281 5.957031 4.59375 5.53125 C 4.457031 5.113281 4.414062 4.710938 4.46875 4.328125 C 4.507812 3.890625 4.617188 3.492188 4.796875 3.140625 C 4.984375 2.765625 5.238281 2.4375 5.5625 2.15625 C 5.882812 1.882812 6.242188 1.679688 6.640625 1.546875 C 7.046875 1.421875 7.457031 1.375 7.875 1.40625 C 8.300781 1.4375 8.703125 1.550781 9.078125 1.75 C 9.453125 1.945312 9.773438 2.203125 10.046875 2.515625 C 10.328125 2.816406 10.535156 3.171875 10.671875 3.578125 Z M 13.375 2.703125 C 13.625 3.460938 13.71875 4.242188 13.65625 5.046875 C 13.59375 5.796875 13.367188 6.550781 12.984375 7.3125 C 12.617188 8.039062 12.140625 8.65625 11.546875 9.15625 C 10.953125 9.664062 10.257812 10.050781 9.46875 10.3125 C 8.707031 10.550781 7.945312 10.644531 7.1875 10.59375 C 6.425781 10.539062 5.65625 10.328125 4.875 9.953125 C 4.144531 9.578125 3.523438 9.09375 3.015625 8.5 C 2.492188 7.90625 2.109375 7.222656 1.859375 6.453125 C 1.609375 5.691406 1.515625 4.90625 1.578125 4.09375 C 1.640625 3.34375 1.863281 2.59375 2.25 1.84375 C 2.613281 1.113281 3.09375 0.492188 3.6875 -0.015625 C 4.28125 -0.523438 4.960938 -0.90625 5.734375 -1.15625 C 6.503906 -1.40625 7.269531 -1.503906 8.03125 -1.453125 C 8.789062 -1.398438 9.566406 -1.179688 10.359375 -0.796875 C 11.078125 -0.429688 11.695312 0.046875 12.21875 0.640625 C 12.738281 1.242188 13.125 1.929688 13.375 2.703125 Z M 13.3125 2.71875 L 10.0625 2.5 L 10.328125 -0.765625 L 7.875 1.375 L 5.765625 -1.109375 L 5.53125 2.140625 L 2.28125 1.84375 L 4.421875 4.328125 L 1.921875 6.421875 L 5.171875 6.65625 L 4.90625 9.90625 L 7.375 7.78125 L 9.46875 10.265625 L 9.71875 7.015625 L 12.953125 7.296875 L 10.8125 4.828125 Z M 13.3125 2.71875 " />
          </g>
        </g>
      </g>
      <g fill="#42b883" fill-opacity="1">
        <g transform="translate(268.421988, 167.716656)">
          <g />
        </g>
      </g>
      <g fill="#42b883" fill-opacity="1">
        <g transform="translate(269.618388, 173.008252)">
          <g>
            <path
              d="M 0.761719 7.304688 L 12.132812 7.816406 L 12.082031 4.394531 L 3.578125 4.539062 L 11.789062 2.171875 L 11.128906 -0.988281 L 0.1875 2.28125 Z M 0.761719 7.304688 " />
          </g>
        </g>
      </g>
      <g fill="#42b883" fill-opacity="1">
        <g transform="translate(270.691109, 182.02426)">
          <g>
            <path
              d="M -0.140625 6.082031 L 1.546875 8.398438 L 11.574219 7.953125 L 11.8125 5.105469 L 2.839844 5.136719 L 2.648438 3.796875 L 11.546875 4.097656 L 11.445312 0.722656 L 1.636719 0.621094 L -0.160156 3.007812 Z M -0.140625 6.082031 " />
          </g>
        </g>
      </g>
      <g fill="#42b883" fill-opacity="1">
        <g transform="translate(270.750144, 190.720924)">
          <g>
            <path
              d="M -0.460938 3.703125 L -0.625 6.335938 L 1.921875 6.382812 L 2.058594 3.9375 L 4.210938 4.078125 L 4.199219 6.613281 L 6.496094 6.800781 L 6.851562 4.375 L 8.6875 4.523438 L 8.414062 7.101562 L 10.9375 7.464844 L 11.207031 4.324219 L 11.335938 1.75 L -0.0976562 0.632812 Z M -0.460938 3.703125 " />
          </g>
        </g>
      </g>
      <g fill="#42b883" fill-opacity="1">
        <g transform="translate(270.210255, 197.304364)">
          <g />
        </g>
      </g>
      <g fill="#42b883" fill-opacity="1">
        <g transform="translate(269.625124, 202.611739)">
          <g>
            <path
              d="M 5.734375 9.390625 C 5.910156 9.171875 6.039062 8.90625 6.125 8.59375 C 6.207031 8.289062 6.226562 7.992188 6.1875 7.703125 C 6.144531 7.410156 6.050781 7.128906 5.90625 6.859375 C 5.726562 6.585938 5.523438 6.359375 5.296875 6.171875 C 5.066406 5.984375 4.800781 5.847656 4.5 5.765625 C 4.195312 5.679688 3.898438 5.660156 3.609375 5.703125 C 3.316406 5.753906 3.023438 5.851562 2.734375 6 C 2.472656 6.164062 2.25 6.363281 2.0625 6.59375 C 1.875 6.820312 1.738281 7.085938 1.65625 7.390625 C 1.570312 7.703125 1.554688 8 1.609375 8.28125 C 1.648438 8.582031 1.742188 8.867188 1.890625 9.140625 C 2.066406 9.421875 2.269531 9.644531 2.5 9.8125 C 2.726562 9.988281 2.992188 10.117188 3.296875 10.203125 C 3.597656 10.285156 3.894531 10.3125 4.1875 10.28125 C 4.476562 10.25 4.769531 10.15625 5.0625 10 C 5.320312 9.832031 5.546875 9.628906 5.734375 9.390625 Z M 6.96875 8.8125 C 6.851562 9.257812 6.671875 9.632812 6.421875 9.9375 C 6.140625 10.269531 5.828125 10.535156 5.484375 10.734375 C 5.128906 10.941406 4.742188 11.070312 4.328125 11.125 C 3.910156 11.1875 3.488281 11.160156 3.0625 11.046875 C 2.675781 10.941406 2.3125 10.757812 1.96875 10.5 C 1.625 10.25 1.347656 9.9375 1.140625 9.5625 C 0.929688 9.195312 0.800781 8.8125 0.75 8.40625 C 0.6875 8 0.710938 7.582031 0.828125 7.15625 C 0.941406 6.726562 1.125 6.363281 1.375 6.0625 C 1.65625 5.71875 1.96875 5.445312 2.3125 5.25 C 2.664062 5.039062 3.050781 4.90625 3.46875 4.84375 C 3.894531 4.789062 4.3125 4.816406 4.71875 4.921875 C 5.125 5.035156 5.492188 5.21875 5.828125 5.46875 C 6.160156 5.726562 6.4375 6.046875 6.65625 6.421875 C 6.863281 6.785156 6.992188 7.175781 7.046875 7.59375 C 7.109375 8 7.082031 8.40625 6.96875 8.8125 Z M 9.71875 9.5625 C 9.507812 10.34375 9.164062 11.046875 8.6875 11.671875 C 8.226562 12.273438 7.628906 12.789062 6.890625 13.21875 C 6.179688 13.625 5.4375 13.878906 4.65625 13.984375 C 3.882812 14.085938 3.097656 14.03125 2.296875 13.8125 C 1.535156 13.601562 0.847656 13.269531 0.234375 12.8125 C -0.378906 12.351562 -0.90625 11.75 -1.34375 11 C -1.757812 10.289062 -2.019531 9.546875 -2.125 8.765625 C -2.226562 7.984375 -2.175781 7.203125 -1.96875 6.421875 C -1.757812 5.640625 -1.410156 4.929688 -0.921875 4.296875 C -0.453125 3.703125 0.144531 3.195312 0.875 2.78125 C 1.59375 2.375 2.335938 2.113281 3.109375 2 C 3.878906 1.894531 4.65625 1.953125 5.4375 2.171875 C 6.226562 2.378906 6.925781 2.710938 7.53125 3.171875 C 8.144531 3.628906 8.671875 4.238281 9.109375 5 C 9.515625 5.6875 9.773438 6.421875 9.890625 7.203125 C 9.992188 7.992188 9.9375 8.78125 9.71875 9.5625 Z M 9.65625 9.546875 L 7.078125 7.578125 L 9.078125 5 L 5.84375 5.46875 L 5.4375 2.203125 L 3.46875 4.8125 L 0.890625 2.8125 L 1.34375 6.046875 L -1.921875 6.421875 L 0.703125 8.421875 L -1.3125 10.984375 L 1.921875 10.53125 L 2.328125 13.765625 L 4.296875 11.1875 L 6.875 13.171875 L 6.4375 9.953125 Z M 9.65625 9.546875 " />
          </g>
        </g>
      </g>
      <g fill="#42b883" fill-opacity="1">
        <g transform="translate(266.078787, 215.072482)">
          <g />
        </g>
      </g>
      <g fill="#42b883" fill-opacity="1">
        <g transform="translate(264.190266, 220.159412)">
          <g>
            <path
              d="M -3.347656 6.535156 L 5.894531 13.175781 L 7.722656 10.277344 L 0.519531 5.757812 L 8.691406 8.257812 L 9.859375 5.25 L -1.089844 2.015625 Z M -3.347656 6.535156 " />
          </g>
        </g>
      </g>
      <g fill="#42b883" fill-opacity="1">
        <g transform="translate(260.166253, 228.297931)">
          <g>
            <path
              d="M -3.441406 5.015625 L -3.289062 7.878906 L 5.351562 12.984375 L 7.109375 10.726562 L -0.425781 5.855469 L 0.148438 4.625 L 7.433594 9.738281 L 9.195312 6.859375 L 1.03125 1.417969 L -1.777344 2.433594 Z M -3.441406 5.015625 " />
          </g>
        </g>
      </g>
      <g fill="#42b883" fill-opacity="1">
        <g transform="translate(255.465676, 235.616278)">
          <g>
            <path
              d="M -2.40625 2.851562 L -3.984375 4.96875 L -1.875 6.398438 L -0.425781 4.421875 L 1.300781 5.71875 L -0.09375 7.835938 L 1.730469 9.246094 L 3.351562 7.40625 L 4.808594 8.53125 L 3.171875 10.542969 L 5.085938 12.226562 L 7.027344 9.742188 L 8.539062 7.65625 L -0.429688 0.476562 Z M -2.40625 2.851562 " />
          </g>
        </g>
      </g>
      <g fill="#42b883" fill-opacity="1">
        <g transform="translate(251.420073, 240.835885)">
          <g />
        </g>
      </g>
      <g fill="#42b883" fill-opacity="1">
        <g transform="translate(248.030727, 244.963043)">
          <g>
            <path
              d="M -0.3125 11 C -0.0507812 10.914062 0.195312 10.765625 0.4375 10.546875 C 0.675781 10.335938 0.859375 10.101562 0.984375 9.84375 C 1.097656 9.5625 1.171875 9.269531 1.203125 8.96875 C 1.203125 8.644531 1.15625 8.34375 1.0625 8.0625 C 0.96875 7.78125 0.816406 7.523438 0.609375 7.296875 C 0.398438 7.054688 0.164062 6.875 -0.09375 6.75 C -0.363281 6.632812 -0.660156 6.554688 -0.984375 6.515625 C -1.296875 6.515625 -1.59375 6.5625 -1.875 6.65625 C -2.144531 6.738281 -2.398438 6.882812 -2.640625 7.09375 C -2.878906 7.3125 -3.054688 7.550781 -3.171875 7.8125 C -3.304688 8.09375 -3.382812 8.378906 -3.40625 8.671875 C -3.414062 9.015625 -3.367188 9.320312 -3.265625 9.59375 C -3.171875 9.863281 -3.019531 10.117188 -2.8125 10.359375 C -2.601562 10.585938 -2.367188 10.765625 -2.109375 10.890625 C -1.847656 11.023438 -1.550781 11.101562 -1.21875 11.125 C -0.914062 11.132812 -0.613281 11.09375 -0.3125 11 Z M 1.015625 11.203125 C 0.679688 11.503906 0.328125 11.710938 -0.046875 11.828125 C -0.460938 11.953125 -0.867188 12.003906 -1.265625 11.984375 C -1.679688 11.972656 -2.078125 11.875 -2.453125 11.6875 C -2.835938 11.5 -3.175781 11.242188 -3.46875 10.921875 C -3.738281 10.617188 -3.945312 10.269531 -4.09375 9.875 C -4.238281 9.476562 -4.296875 9.0625 -4.265625 8.625 C -4.242188 8.21875 -4.144531 7.828125 -3.96875 7.453125 C -3.800781 7.078125 -3.550781 6.738281 -3.21875 6.4375 C -2.894531 6.144531 -2.539062 5.945312 -2.15625 5.84375 C -1.738281 5.695312 -1.332031 5.632812 -0.9375 5.65625 C -0.519531 5.675781 -0.117188 5.773438 0.265625 5.953125 C 0.648438 6.140625 0.984375 6.390625 1.265625 6.703125 C 1.546875 7.015625 1.753906 7.367188 1.890625 7.765625 C 2.023438 8.160156 2.082031 8.578125 2.0625 9.015625 C 2.039062 9.441406 1.941406 9.84375 1.765625 10.21875 C 1.585938 10.59375 1.335938 10.921875 1.015625 11.203125 Z M 2.921875 13.3125 C 2.328125 13.84375 1.648438 14.25 0.890625 14.53125 C 0.179688 14.769531 -0.59375 14.867188 -1.4375 14.828125 C -2.269531 14.785156 -3.035156 14.597656 -3.734375 14.265625 C -4.429688 13.929688 -5.054688 13.453125 -5.609375 12.828125 C -6.140625 12.242188 -6.53125 11.585938 -6.78125 10.859375 C -7.039062 10.140625 -7.15625 9.347656 -7.125 8.484375 C -7.09375 7.660156 -6.90625 6.894531 -6.5625 6.1875 C -6.226562 5.46875 -5.757812 4.835938 -5.15625 4.296875 C -4.550781 3.765625 -3.867188 3.363281 -3.109375 3.09375 C -2.390625 2.851562 -1.613281 2.757812 -0.78125 2.8125 C 0.0390625 2.84375 0.800781 3.023438 1.5 3.359375 C 2.207031 3.703125 2.832031 4.175781 3.375 4.78125 C 3.914062 5.382812 4.316406 6.046875 4.578125 6.765625 C 4.835938 7.484375 4.945312 8.28125 4.90625 9.15625 C 4.863281 9.957031 4.675781 10.71875 4.34375 11.4375 C 4 12.144531 3.523438 12.769531 2.921875 13.3125 Z M 2.875 13.265625 L 1.765625 10.21875 L 4.859375 9.140625 L 1.90625 7.765625 L 3.359375 4.828125 L 0.265625 5.921875 L -0.78125 2.828125 L -2.1875 5.78125 L -5.109375 4.34375 L -4.015625 7.421875 L -7.09375 8.484375 L -4.140625 9.875 L -5.5625 12.8125 L -2.5 11.71875 L -1.453125 14.796875 L -0.0625 11.859375 Z M 2.875 13.265625 " />
          </g>
        </g>
      </g>
      <g fill="#42b883" fill-opacity="1">
        <g transform="translate(238.256371, 253.464955)">
          <g />
        </g>
      </g>
      <g fill="#42b883" fill-opacity="1">
        <g transform="translate(233.89527, 256.695864)">
          <g>
            <path
              d="M -6.375 3.644531 L -2.257812 14.253906 L 0.859375 12.828125 L -2.710938 5.105469 L 2.769531 11.664062 L 5.394531 9.78125 L -2.011719 1.09375 Z M -6.375 3.644531 " />
          </g>
        </g>
      </g>
      <g fill="#42b883" fill-opacity="1">
        <g transform="translate(226.080677, 261.316125)">
          <g>
            <path
              d="M -5.621094 2.324219 L -7.058594 4.804688 L -2.605469 13.796875 L 0.0976562 12.867188 L -3.554688 4.671875 L -2.402344 3.957031 L 0.910156 12.21875 L 3.957031 10.765625 L 0.09375 1.75 L -2.816406 1.070312 Z M -5.621094 2.324219 " />
          </g>
        </g>
      </g>
      <g fill="#42b883" fill-opacity="1">
        <g transform="translate(218.145448, 264.880722)">
          <g>
            <path
              d="M -3.574219 1.074219 L -6.050781 1.988281 L -5.0625 4.335938 L -2.773438 3.472656 L -2.03125 5.5 L -4.355469 6.511719 L -3.601562 8.6875 L -1.234375 8.035156 L -0.632812 9.773438 L -3.101562 10.5625 L -2.414062 13.019531 L 0.566406 12 L 2.972656 11.078125 L -0.621094 0.164062 Z M -3.574219 1.074219 " />
          </g>
        </g>
      </g>
      <g fill="#42b883" fill-opacity="1">
        <g transform="translate(211.907661, 267.043436)">
          <g />
        </g>
      </g>
      <g fill="#42b883" fill-opacity="1">
        <g transform="translate(206.813632, 268.650579)">
          <g>
            <path
              d="M -6.265625 9.046875 C -6.003906 9.117188 -5.710938 9.128906 -5.390625 9.078125 C -5.078125 9.035156 -4.796875 8.9375 -4.546875 8.78125 C -4.296875 8.613281 -4.070312 8.40625 -3.875 8.15625 C -3.695312 7.894531 -3.570312 7.617188 -3.5 7.328125 C -3.4375 7.046875 -3.425781 6.753906 -3.46875 6.453125 C -3.519531 6.140625 -3.617188 5.859375 -3.765625 5.609375 C -3.921875 5.359375 -4.125 5.128906 -4.375 4.921875 C -4.632812 4.753906 -4.910156 4.628906 -5.203125 4.546875 C -5.484375 4.472656 -5.78125 4.457031 -6.09375 4.5 C -6.414062 4.550781 -6.691406 4.65625 -6.921875 4.8125 C -7.179688 4.976562 -7.40625 5.179688 -7.59375 5.421875 C -7.789062 5.691406 -7.921875 5.96875 -7.984375 6.25 C -8.046875 6.53125 -8.050781 6.828125 -8 7.140625 C -7.957031 7.441406 -7.863281 7.71875 -7.71875 7.96875 C -7.570312 8.226562 -7.363281 8.457031 -7.09375 8.65625 C -6.84375 8.832031 -6.566406 8.960938 -6.265625 9.046875 Z M -5.25 9.9375 C -5.707031 10.007812 -6.125 9.988281 -6.5 9.875 C -6.914062 9.769531 -7.28125 9.597656 -7.59375 9.359375 C -7.945312 9.109375 -8.234375 8.800781 -8.453125 8.4375 C -8.671875 8.082031 -8.8125 7.691406 -8.875 7.265625 C -8.9375 6.859375 -8.921875 6.445312 -8.828125 6.03125 C -8.734375 5.625 -8.550781 5.25 -8.28125 4.90625 C -8.039062 4.570312 -7.742188 4.296875 -7.390625 4.078125 C -7.046875 3.847656 -6.65625 3.703125 -6.21875 3.640625 C -5.78125 3.578125 -5.375 3.597656 -5 3.703125 C -4.5625 3.828125 -4.1875 4 -3.875 4.21875 C -3.539062 4.46875 -3.257812 4.769531 -3.03125 5.125 C -2.800781 5.488281 -2.65625 5.878906 -2.59375 6.296875 C -2.53125 6.710938 -2.550781 7.125 -2.65625 7.53125 C -2.757812 7.945312 -2.9375 8.328125 -3.1875 8.671875 C -3.4375 9.023438 -3.742188 9.300781 -4.109375 9.5 C -4.453125 9.726562 -4.832031 9.875 -5.25 9.9375 Z M -4.828125 12.75 C -5.617188 12.875 -6.398438 12.847656 -7.171875 12.671875 C -7.910156 12.484375 -8.625 12.144531 -9.3125 11.65625 C -9.96875 11.15625 -10.5 10.570312 -10.90625 9.90625 C -11.3125 9.25 -11.582031 8.507812 -11.71875 7.6875 C -11.832031 6.90625 -11.800781 6.140625 -11.625 5.390625 C -11.445312 4.640625 -11.109375 3.914062 -10.609375 3.21875 C -10.117188 2.539062 -9.539062 2.003906 -8.875 1.609375 C -8.195312 1.179688 -7.457031 0.90625 -6.65625 0.78125 C -5.863281 0.65625 -5.082031 0.695312 -4.3125 0.90625 C -3.570312 1.082031 -2.863281 1.421875 -2.1875 1.921875 C -1.519531 2.398438 -0.984375 2.972656 -0.578125 3.640625 C -0.171875 4.316406 0.0859375 5.054688 0.203125 5.859375 C 0.328125 6.660156 0.300781 7.429688 0.125 8.171875 C -0.0390625 8.910156 -0.378906 9.640625 -0.890625 10.359375 C -1.367188 11.003906 -1.941406 11.539062 -2.609375 11.96875 C -3.285156 12.363281 -4.023438 12.625 -4.828125 12.75 Z M -4.828125 12.6875 L -4.09375 9.515625 L -0.90625 10.328125 L -2.625 7.546875 L 0.1875 5.875 L -3 5.109375 L -2.203125 1.953125 L -4.984375 3.65625 L -6.65625 0.84375 L -7.40625 4.03125 L -10.578125 3.234375 L -8.859375 6.015625 L -11.65625 7.6875 L -8.484375 8.453125 L -9.28125 11.609375 L -6.515625 9.890625 Z M -4.828125 12.6875 " />
          </g>
        </g>
      </g>
      <g fill="#42b883" fill-opacity="1">
        <g transform="translate(193.983597, 270.435085)">
          <g />
        </g>
      </g>
      <g fill="#42b883" fill-opacity="1">
        <g transform="translate(188.564603, 270.760916)">
          <g>
            <path
              d="M -7.332031 -0.425781 L -9.675781 10.710938 L -6.285156 11.214844 L -5.058594 2.796875 L -4.046875 11.285156 L -0.824219 11.140625 L -2.28125 -0.183594 Z M -7.332031 -0.425781 " />
          </g>
        </g>
      </g>
      <g fill="#42b883" fill-opacity="1">
        <g transform="translate(179.495657, 270.363924)">
          <g>
            <path
              d="M -5.976562 -1.121094 L -8.539062 0.171875 L -9.71875 10.136719 L -6.945312 10.835938 L -5.527344 1.972656 L -4.171875 2 L -5.910156 10.734375 L -2.5625 11.179688 L -0.878906 1.515625 L -2.945312 -0.644531 Z M -5.976562 -1.121094 " />
          </g>
        </g>
      </g>
      <g fill="#42b883" fill-opacity="1">
        <g transform="translate(170.900399, 269.017508)">
          <g>
            <path
              d="M -3.578125 -1.050781 L -6.152344 -1.640625 L -6.609375 0.867188 L -4.21875 1.394531 L -4.707031 3.5 L -7.207031 3.078125 L -7.761719 5.3125 L -5.421875 6.058594 L -5.863281 7.84375 L -8.367188 7.15625 L -9.132812 9.585938 L -6.078125 10.359375 L -3.558594 10.902344 L -0.609375 -0.199219 Z M -3.578125 -1.050781 " />
          </g>
        </g>
      </g>
      <g fill="#42b883" fill-opacity="1">
        <g transform="translate(164.495393, 267.422255)">
          <g />
        </g>
      </g>
      <g fill="#42b883" fill-opacity="1">
        <g transform="translate(159.349336, 265.987426)">
          <g>
            <path
              d="M -10.203125 4.140625 C -10.003906 4.347656 -9.757812 4.515625 -9.46875 4.640625 C -9.175781 4.773438 -8.890625 4.847656 -8.609375 4.859375 C -8.304688 4.867188 -8.007812 4.820312 -7.71875 4.71875 C -7.414062 4.59375 -7.15625 4.429688 -6.9375 4.234375 C -6.726562 4.035156 -6.554688 3.796875 -6.421875 3.515625 C -6.296875 3.222656 -6.226562 2.929688 -6.21875 2.640625 C -6.207031 2.347656 -6.253906 2.046875 -6.359375 1.734375 C -6.484375 1.453125 -6.644531 1.195312 -6.84375 0.96875 C -7.03125 0.75 -7.269531 0.570312 -7.5625 0.4375 C -7.851562 0.3125 -8.144531 0.25 -8.4375 0.25 C -8.738281 0.25 -9.035156 0.296875 -9.328125 0.390625 C -9.628906 0.515625 -9.882812 0.675781 -10.09375 0.875 C -10.3125 1.070312 -10.484375 1.316406 -10.609375 1.609375 C -10.742188 1.890625 -10.816406 2.175781 -10.828125 2.46875 C -10.835938 2.757812 -10.789062 3.0625 -10.6875 3.375 C -10.5625 3.664062 -10.398438 3.921875 -10.203125 4.140625 Z M -9.828125 5.46875 C -10.242188 5.28125 -10.582031 5.035156 -10.84375 4.734375 C -11.125 4.398438 -11.335938 4.050781 -11.484375 3.6875 C -11.628906 3.289062 -11.695312 2.878906 -11.6875 2.453125 C -11.675781 2.035156 -11.582031 1.628906 -11.40625 1.234375 C -11.238281 0.859375 -11 0.523438 -10.6875 0.234375 C -10.382812 -0.046875 -10.03125 -0.257812 -9.625 -0.40625 C -9.238281 -0.5625 -8.835938 -0.632812 -8.421875 -0.625 C -8.003906 -0.613281 -7.59375 -0.515625 -7.1875 -0.328125 C -6.789062 -0.148438 -6.46875 0.0820312 -6.21875 0.375 C -5.914062 0.707031 -5.695312 1.0625 -5.5625 1.4375 C -5.40625 1.820312 -5.332031 2.222656 -5.34375 2.640625 C -5.351562 3.066406 -5.445312 3.472656 -5.625 3.859375 C -5.800781 4.242188 -6.039062 4.578125 -6.34375 4.859375 C -6.65625 5.148438 -7.015625 5.375 -7.421875 5.53125 C -7.816406 5.675781 -8.222656 5.742188 -8.640625 5.734375 C -9.035156 5.734375 -9.429688 5.644531 -9.828125 5.46875 Z M -11.015625 8.046875 C -11.742188 7.710938 -12.382812 7.257812 -12.9375 6.6875 C -13.445312 6.125 -13.851562 5.445312 -14.15625 4.65625 C -14.4375 3.882812 -14.5625 3.113281 -14.53125 2.34375 C -14.507812 1.570312 -14.328125 0.804688 -13.984375 0.046875 C -13.660156 -0.671875 -13.222656 -1.296875 -12.671875 -1.828125 C -12.117188 -2.359375 -11.4375 -2.785156 -10.625 -3.109375 C -9.863281 -3.398438 -9.09375 -3.53125 -8.3125 -3.5 C -7.519531 -3.488281 -6.753906 -3.316406 -6.015625 -2.984375 C -5.285156 -2.648438 -4.644531 -2.1875 -4.09375 -1.59375 C -3.582031 -1.039062 -3.175781 -0.375 -2.875 0.40625 C -2.582031 1.175781 -2.445312 1.953125 -2.46875 2.734375 C -2.488281 3.515625 -2.664062 4.273438 -3 5.015625 C -3.34375 5.753906 -3.789062 6.390625 -4.34375 6.921875 C -4.894531 7.453125 -5.582031 7.867188 -6.40625 8.171875 C -7.144531 8.472656 -7.914062 8.613281 -8.71875 8.59375 C -9.507812 8.5625 -10.273438 8.378906 -11.015625 8.046875 Z M -10.984375 8 L -8.625 5.75 L -6.40625 8.15625 L -6.328125 4.890625 L -3.0625 5.015625 L -5.3125 2.640625 L -2.90625 0.4375 L -6.1875 0.34375 L -6.03125 -2.921875 L -8.421875 -0.671875 L -10.625 -3.0625 L -10.703125 0.203125 L -13.96875 0.078125 L -11.71875 2.453125 L -14.125 4.65625 L -10.859375 4.734375 Z M -10.984375 8 " />
          </g>
        </g>
      </g>
      <g fill="#42b883" fill-opacity="1">
        <g transform="translate(147.627585, 260.475882)">
          <g />
        </g>
      </g>
      <g fill="#42b883" fill-opacity="1">
        <g transform="translate(142.908724, 257.790315)">
          <g>
            <path
              d="M -5.910156 -4.359375 L -13.953125 3.6875 L -11.390625 5.960938 L -5.765625 -0.417969 L -9.550781 7.242188 L -6.773438 8.882812 L -1.8125 -1.398438 Z M -5.910156 -4.359375 " />
          </g>
        </g>
      </g>
      <g fill="#42b883" fill-opacity="1">
        <g transform="translate(135.528722, 252.505169)">
          <g>
            <path
              d="M -4.394531 -4.203125 L -7.246094 -4.519531 L -13.675781 3.183594 L -11.734375 5.285156 L -5.707031 -1.367188 L -4.589844 -0.601562 L -10.8125 5.765625 L -8.253906 7.964844 L -1.5625 0.789062 L -2.113281 -2.148438 Z M -4.394531 -4.203125 " />
          </g>
        </g>
      </g>
      <g fill="#42b883" fill-opacity="1">
        <g transform="translate(129.062253, 246.684176)">
          <g>
            <path
              d="M -2.425781 -2.835938 L -4.257812 -4.734375 L -6.011719 -2.882812 L -4.296875 -1.136719 L -5.851562 0.359375 L -7.71875 -1.359375 L -9.402344 0.214844 L -7.851562 2.113281 L -9.195312 3.367188 L -10.917969 1.429688 L -12.886719 3.046875 L -10.75 5.363281 L -8.933594 7.191406 L -0.402344 -0.5 Z M -2.425781 -2.835938 " />
          </g>
        </g>
      </g>
    </g>
    <g id="bootcamp-text" fill="#42b883" fill-opacity="1">
      <g clip-path="url(#id2)">
        <g clip-path="url(#id3)">
          <g clip-path="url(#id4)">
            <g clip-path="url(#id5)">
              <path fill="#ffcd05"
                d="M 64.535156 149.949219 L 77.855469 162.195312 L 66.25 158.949219 L 65.019531 163.332031 L 51.421875 151.042969 L 63.25 154.367188 Z M 64.535156 149.949219 "
                fill-opacity="1" fill-rule="nonzero" />
            </g>
          </g>
        </g>
      </g>
      <g clip-path="url(#id6)">
        <g clip-path="url(#id7)">
          <g clip-path="url(#id8)">
            <g clip-path="url(#id9)">
              <path fill="#ffcd05"
                d="M 301.605469 235.328125 L 314.921875 247.574219 L 303.320312 244.328125 L 302.085938 248.710938 L 288.488281 236.421875 L 300.320312 239.746094 Z M 301.605469 235.328125 "
                fill-opacity="1" fill-rule="nonzero" />
            </g>
          </g>
        </g>
      </g>
      <g fill="#e8e8e8" fill-opacity="1">
        <g transform="translate(84.812882, 148.47937)">
          <g>
            <path
              d="M -18.460938 -21.746094 L -11.347656 -34.871094 C -11.046875 -35.417969 -11.222656 -36.003906 -11.601562 -36.210938 L -16.246094 -38.726562 C -16.625 -38.929688 -17.210938 -38.757812 -17.507812 -38.207031 L -27.640625 -19.515625 C -27.9375 -18.964844 -27.742188 -18.421875 -27.363281 -18.21875 L 0.699219 -3.003906 C 1.039062 -2.820312 1.601562 -2.953125 1.898438 -3.503906 L 4.4375 -8.1875 C 4.734375 -8.734375 4.539062 -9.277344 4.199219 -9.460938 L -6.769531 -15.410156 L -0.914062 -26.210938 C -0.640625 -26.71875 -0.835938 -27.261719 -1.21875 -27.46875 L -5.734375 -29.914062 C -6.113281 -30.121094 -6.675781 -29.988281 -6.949219 -29.484375 L -12.804688 -18.679688 Z M -18.460938 -21.746094 " />
          </g>
        </g>
      </g>
      <g fill="#e8e8e8" fill-opacity="1">
        <g transform="translate(103.940659, 116.419978)">
          <g>
            <path
              d="M 15.539062 -13.730469 L 20.253906 -17.890625 C 20.828125 -18.402344 20.707031 -19.191406 19.96875 -19.371094 L 20 -19.335938 L 5.378906 -23.710938 C 7.019531 -26.632812 7.957031 -30.792969 4.207031 -35.039062 C -2.496094 -42.628906 -11.238281 -34.90625 -11.238281 -34.90625 L -19.222656 -27.851562 C -19.65625 -27.46875 -19.695312 -26.859375 -19.40625 -26.535156 L -15.816406 -22.46875 L -11.375 -21.140625 C -10.171875 -20.796875 -8.996094 -20.550781 -7.832031 -20.175781 L -10.421875 -17.886719 C -10.851562 -17.503906 -10.890625 -16.894531 -10.605469 -16.570312 L 1.726562 -2.613281 C 1.980469 -2.324219 2.589844 -2.289062 3.023438 -2.667969 L 7.015625 -6.195312 C 7.480469 -6.609375 7.484375 -7.1875 7.230469 -7.476562 L -1.03125 -16.828125 L 0.046875 -17.78125 L 14.605469 -13.480469 L 14.539062 -13.484375 C 14.769531 -13.367188 15.324219 -13.539062 15.539062 -13.730469 Z M -1.785156 -25.582031 L -8.863281 -27.652344 L -6.597656 -29.652344 C -5.914062 -30.257812 -3.398438 -32.480469 -1.332031 -30.144531 C 0.226562 -28.382812 -0.695312 -26.667969 -1.785156 -25.582031 Z M -1.785156 -25.582031 " />
          </g>
        </g>
      </g>
      <g fill="#e8e8e8" fill-opacity="1">
        <g transform="translate(134.016062, 91.981372)">
          <g>
            <path
              d="M 10.75 -13.507812 C 17.347656 -16.003906 20.8125 -23.265625 18.351562 -29.773438 C 15.90625 -36.242188 8.453125 -39.527344 1.851562 -37.035156 C -4.792969 -34.519531 -8.203125 -27.125 -5.757812 -20.660156 C -3.296875 -14.148438 4.105469 -10.996094 10.75 -13.507812 Z M 4.316406 -30.523438 C 7.1875 -31.609375 10.359375 -30.140625 11.480469 -27.179688 C 12.617188 -24.167969 11.160156 -21.105469 8.289062 -20.015625 C 5.414062 -18.929688 2.246094 -20.246094 1.109375 -23.257812 C -0.0117188 -26.21875 1.441406 -29.4375 4.316406 -30.523438 Z M 24.269531 -10.050781 L 22.402344 -14.988281 C 22.25 -15.394531 21.691406 -15.644531 21.109375 -15.421875 L 1.445312 -7.988281 C 0.859375 -7.765625 0.652344 -7.226562 0.808594 -6.824219 L 2.675781 -1.882812 C 2.808594 -1.523438 3.324219 -1.257812 3.90625 -1.476562 L 23.570312 -8.914062 C 24.15625 -9.132812 24.40625 -9.691406 24.269531 -10.050781 Z M 24.269531 -10.050781 " />
          </g>
        </g>
      </g>
      <g fill="#e8e8e8" fill-opacity="1">
        <g transform="translate(171.707803, 79.130275)">
          <g>
            <path
              d="M 31.640625 0.0234375 L 32.488281 -31.882812 C 32.5 -32.316406 32.128906 -32.757812 31.503906 -32.773438 L 26.226562 -32.914062 C 25.601562 -32.933594 25.207031 -32.511719 25.195312 -32.078125 L 24.679688 -12.597656 C 20.019531 -19.683594 15.765625 -25.941406 11.152344 -32.980469 C 10.964844 -33.222656 10.535156 -33.332031 10.34375 -33.335938 L 4.921875 -33.480469 C 4.347656 -33.496094 3.902344 -33.074219 3.890625 -32.644531 L 3.042969 -0.734375 C 3.035156 -0.351562 3.453125 0.0898438 4.03125 0.105469 L 9.40625 0.25 C 9.980469 0.265625 10.421875 -0.15625 10.433594 -0.539062 L 10.953125 -20.117188 L 24.433594 0.3125 C 24.617188 0.558594 25.046875 0.664062 25.238281 0.671875 L 30.613281 0.8125 C 31.238281 0.828125 31.632812 0.40625 31.640625 0.0234375 Z M 31.640625 0.0234375 " />
          </g>
        </g>
      </g>
      <g fill="#e8e8e8" fill-opacity="1">
        <g transform="translate(216.458255, 83.197729)">
          <g>
            <path
              d="M 29.71875 -18.238281 L 31.5 -22.746094 C 31.660156 -23.144531 31.417969 -23.707031 30.835938 -23.9375 L 13.429688 -30.820312 C 12.894531 -31.03125 12.332031 -30.789062 12.171875 -30.386719 L 10.390625 -25.878906 C 10.25 -25.523438 10.492188 -24.960938 11.027344 -24.75 L 16.339844 -22.648438 L 6.683594 1.765625 C 6.542969 2.121094 6.785156 2.683594 7.320312 2.894531 L 12.230469 4.835938 C 12.808594 5.066406 13.371094 4.824219 13.511719 4.464844 L 23.167969 -19.949219 L 28.4375 -17.867188 C 29.015625 -17.636719 29.578125 -17.878906 29.71875 -18.238281 Z M 29.71875 -18.238281 " />
          </g>
        </g>
      </g>
      <g fill="#e8e8e8" fill-opacity="1">
        <g transform="translate(245.25344, 96.183785)">
          <g>
            <path
              d="M 24.023438 0.523438 L 27.023438 -3.285156 C 27.289062 -3.625 27.292969 -4.171875 26.765625 -4.589844 L 14.167969 -14.503906 C 13.675781 -14.890625 13.070312 -14.820312 12.804688 -14.480469 L 9.804688 -10.667969 C 9.566406 -10.367188 9.640625 -9.761719 10.128906 -9.375 L 22.726562 0.542969 C 23.253906 0.957031 23.785156 0.824219 24.023438 0.523438 Z M 24.023438 0.523438 " />
          </g>
        </g>
      </g>
      <g fill="#e8e8e8" fill-opacity="1">
        <g transform="translate(269.067041, 116.228303)">
          <g>
            <path
              d="M 27.984375 -6.179688 L 36.023438 5.941406 C 36.34375 6.421875 36.941406 6.542969 37.300781 6.304688 L 41.582031 3.464844 C 41.941406 3.226562 42.0625 2.628906 41.742188 2.148438 L 30.203125 -15.253906 C 29.859375 -15.773438 29.285156 -15.851562 28.925781 -15.613281 L 2.324219 2.027344 C 2.003906 2.242188 1.855469 2.800781 2.203125 3.320312 L 13.957031 21.039062 C 14.300781 21.558594 14.898438 21.683594 15.21875 21.46875 L 19.660156 18.523438 C 20.019531 18.285156 20.140625 17.6875 19.796875 17.167969 L 11.542969 4.726562 L 16.90625 1.171875 L 23.695312 11.410156 C 24.015625 11.890625 24.585938 11.972656 24.90625 11.761719 L 29.226562 8.894531 C 29.585938 8.65625 29.734375 8.097656 29.417969 7.617188 L 22.625 -2.621094 Z M 27.984375 -6.179688 " />
          </g>
        </g>
      </g>
      <g fill="#e8e8e8" fill-opacity="1">
        <g transform="translate(288.918923, 148.095393)">
          <g>
            <path
              d="M 7.316406 30.785156 L 38.550781 24.207031 C 38.976562 24.117188 39.320312 23.652344 39.191406 23.042969 L 38.101562 17.875 C 37.972656 17.265625 37.472656 16.976562 37.046875 17.066406 L 17.980469 21.082031 C 23.789062 14.90625 28.890625 9.316406 34.667969 3.195312 C 34.863281 2.957031 34.867188 2.515625 34.828125 2.328125 L 33.710938 -2.980469 C 33.589844 -3.542969 33.078125 -3.875 32.65625 -3.789062 L 1.421875 2.789062 C 1.046875 2.871094 0.710938 3.382812 0.832031 3.945312 L 1.9375 9.207031 C 2.058594 9.769531 2.570312 10.101562 2.945312 10.023438 L 22.109375 5.988281 L 5.363281 23.839844 C 5.167969 24.074219 5.164062 24.519531 5.203125 24.707031 L 6.3125 29.964844 C 6.441406 30.578125 6.941406 30.863281 7.316406 30.785156 Z M 7.316406 30.785156 " />
          </g>
        </g>
      </g>
      <g fill="#e8e8e8" fill-opacity="1">
        <g transform="translate(295.986662, 192.169403)">
          <g>
            <path
              d="M 31.308594 15.34375 L 32.289062 10.105469 C 32.398438 9.539062 32.050781 9.035156 31.628906 8.957031 L 0.253906 3.074219 C -0.125 3.003906 -0.628906 3.351562 -0.734375 3.914062 L -1.714844 9.152344 C -3.253906 17.363281 -2.945312 28.992188 11.160156 31.636719 C 25.835938 34.386719 29.796875 23.410156 31.308594 15.34375 Z M 5.023438 11.492188 L 24.179688 15.082031 C 23.097656 21.375 19.515625 25.632812 12.53125 24.324219 C 3.425781 22.617188 4.167969 15.285156 5.023438 11.492188 Z M 5.023438 11.492188 " />
          </g>
        </g>
      </g>
      <g fill="#e8e8e8" fill-opacity="1">
        <g transform="translate(45.893423, 178.677091)">
          <g>
            <path
              d="M 24.617188 25.496094 C 34.644531 25.183594 34.042969 13.582031 34.042969 13.582031 L 33.707031 2.929688 C 33.6875 2.304688 33.246094 1.933594 32.8125 1.949219 L 0.910156 2.949219 C 0.523438 2.960938 0.105469 3.359375 0.125 3.980469 L 0.457031 14.632812 C 0.53125 16.886719 1.269531 26.710938 10.816406 26.410156 C 10.816406 26.410156 15.527344 26.503906 17.539062 21.78125 C 18.808594 24.046875 21.019531 25.609375 24.617188 25.496094 Z M 20.617188 9.632812 L 27.140625 9.425781 L 27.277344 13.792969 C 27.277344 13.792969 27.457031 18.011719 24.003906 18.121094 C 20.886719 18.21875 20.753906 13.996094 20.753906 13.996094 Z M 7.367188 14.417969 L 7.230469 10.050781 L 13.5625 9.851562 L 13.699219 14.21875 C 13.699219 14.21875 14.085938 18.910156 10.730469 19.015625 C 7.996094 19.101562 7.425781 16.238281 7.367188 14.417969 Z M 7.367188 14.417969 " />
          </g>
        </g>
      </g>
      <g fill="#e8e8e8" fill-opacity="1">
        <g transform="translate(50.105894, 224.815553)">
          <g>
            <path
              d="M 13.53125 10.71875 C 16.042969 17.3125 23.3125 20.757812 29.816406 18.28125 C 36.277344 15.820312 39.546875 8.363281 37.039062 1.765625 C 34.507812 -4.871094 27.105469 -8.265625 20.644531 -5.808594 C 14.140625 -3.328125 11.003906 4.078125 13.53125 10.71875 Z M 30.53125 4.246094 C 31.625 7.117188 30.164062 10.292969 27.203125 11.417969 C 24.199219 12.5625 21.128906 11.113281 20.035156 8.242188 C 18.941406 5.371094 20.253906 2.199219 23.257812 1.054688 C 26.21875 -0.0703125 29.441406 1.375 30.53125 4.246094 Z M 10.105469 24.246094 L 15.039062 22.367188 C 15.445312 22.214844 15.695312 21.65625 15.472656 21.074219 L 7.992188 1.425781 C 7.769531 0.84375 7.226562 0.636719 6.824219 0.792969 L 1.890625 2.671875 C 1.53125 2.808594 1.265625 3.320312 1.484375 3.902344 L 8.96875 23.550781 C 9.191406 24.132812 9.746094 24.382812 10.105469 24.246094 Z M 10.105469 24.246094 " />
          </g>
        </g>
      </g>
      <g fill="#e8e8e8" fill-opacity="1">
        <g transform="translate(69.957923, 268.604715)">
          <g>
            <path
              d="M 16.324219 5.609375 C 20.886719 10.992188 28.890625 11.824219 34.199219 7.328125 C 39.472656 2.859375 40.078125 -5.265625 35.519531 -10.648438 C 30.925781 -16.070312 22.8125 -16.808594 17.539062 -12.339844 C 12.230469 -7.84375 11.734375 0.1875 16.324219 5.609375 Z M 30.207031 -6.148438 C 32.191406 -3.804688 31.871094 -0.324219 29.453125 1.722656 C 27 3.800781 23.621094 3.453125 21.636719 1.109375 C 19.652344 -1.234375 19.832031 -4.660156 22.285156 -6.738281 C 24.703125 -8.785156 28.222656 -8.492188 30.207031 -6.148438 Z M 17.59375 19.507812 L 21.621094 16.09375 C 21.953125 15.816406 22.003906 15.207031 21.597656 14.730469 L 8.011719 -1.3125 C 7.605469 -1.789062 7.027344 -1.800781 6.699219 -1.523438 L 2.671875 1.890625 C 2.378906 2.136719 2.296875 2.710938 2.699219 3.1875 L 16.289062 19.230469 C 16.691406 19.703125 17.300781 19.753906 17.59375 19.507812 Z M 17.59375 19.507812 " />
          </g>
        </g>
      </g>
      <g fill="#e8e8e8" fill-opacity="1">
        <g transform="translate(103.127436, 302.696803)">
          <g>
            <path
              d="M 32.597656 -12.378906 L 35.1875 -16.472656 C 35.417969 -16.839844 35.285156 -17.433594 34.757812 -17.769531 L 18.9375 -27.777344 C 18.453125 -28.085938 17.855469 -27.953125 17.625 -27.585938 L 15.03125 -23.488281 C 14.828125 -23.164062 14.960938 -22.570312 15.449219 -22.261719 L 20.273438 -19.207031 L 6.238281 2.980469 C 6.03125 3.304688 6.164062 3.902344 6.652344 4.207031 L 11.113281 7.03125 C 11.640625 7.367188 12.238281 7.230469 12.441406 6.90625 L 26.480469 -15.28125 L 31.269531 -12.253906 C 31.796875 -11.917969 32.390625 -12.054688 32.597656 -12.378906 Z M 32.597656 -12.378906 " />
          </g>
        </g>
      </g>
      <g fill="#e8e8e8" fill-opacity="1">
        <g transform="translate(136.793834, 321.88098)">
          <g>
            <path
              d="M 19.984375 -1.636719 C 14.871094 -2.941406 11.65625 -7.824219 13.222656 -13.964844 C 14.683594 -19.683594 19.253906 -23.027344 25.066406 -21.542969 C 27.625 -20.890625 29.675781 -19.226562 30.992188 -17.007812 C 31.246094 -16.644531 31.804688 -16.503906 32.25 -16.6875 L 36.789062 -19.34375 C 37.140625 -19.550781 37.304688 -20.203125 37.203125 -20.574219 C 34.996094 -24.160156 31.265625 -27.191406 26.800781 -28.332031 C 17.171875 -30.789062 8.519531 -25.617188 6.015625 -15.804688 C 3.402344 -5.570312 9.136719 2.828125 18.253906 5.152344 C 22.71875 6.292969 27.449219 5.421875 31.089844 3.378906 C 31.382812 3.203125 31.457031 2.53125 31.398438 2.167969 L 28.765625 -2.269531 C 28.394531 -2.757812 27.757812 -2.972656 27.359375 -2.777344 C 25.140625 -1.460938 22.542969 -0.984375 19.984375 -1.636719 Z M 19.984375 -1.636719 " />
          </g>
        </g>
      </g>
      <g fill="#e8e8e8" fill-opacity="1">
        <g transform="translate(186.637468, 331.054281)">
          <g>
            <path
              d="M 17.933594 -5.417969 L 19.511719 -2.230469 L 19.507812 -2.277344 C 19.632812 -1.949219 20.085938 -1.75 20.464844 -1.78125 L 26.253906 -2.285156 C 26.96875 -2.347656 27.300781 -2.957031 27.011719 -3.507812 L 11.511719 -34.921875 C 11.113281 -35.609375 9.917969 -35.507812 9.644531 -34.757812 L -0.195312 -1.140625 C -0.382812 -0.542969 0 0 0.8125 -0.0703125 L 6.503906 -0.566406 C 6.980469 -0.609375 7.390625 -0.882812 7.457031 -1.226562 L 7.460938 -1.179688 L 8.371094 -4.582031 Z M 9.777344 -10.535156 L 11.066406 -15.660156 C 11.421875 -17.136719 11.679688 -18.601562 11.859375 -20.402344 C 12.292969 -18.753906 12.792969 -17.398438 13.410156 -15.863281 L 15.515625 -11.035156 Z M 9.777344 -10.535156 " />
          </g>
        </g>
      </g>
      <g fill="#e8e8e8" fill-opacity="1">
        <g transform="translate(231.808764, 325.232292)">
          <g>
            <path
              d="M 35.164062 -18.535156 L 20.84375 -47.117188 C 20.648438 -47.503906 20.070312 -47.695312 19.511719 -47.414062 L 14.703125 -45.007812 C 14.449219 -44.878906 14.0625 -44.363281 14.082031 -44.105469 L 14.792969 -18.902344 L -5.484375 -34.296875 C -5.65625 -34.425781 -6.234375 -34.511719 -6.535156 -34.363281 L -11.429688 -31.910156 C -12.03125 -31.609375 -12.09375 -31.09375 -11.898438 -30.707031 L 2.421875 -2.128906 C 2.597656 -1.785156 3.046875 -1.527344 3.648438 -1.828125 L 8.453125 -4.238281 C 8.96875 -4.496094 9.160156 -5.074219 8.988281 -5.417969 L 1.785156 -19.792969 L 15.554688 -9.78125 L 15.53125 -9.824219 C 15.726562 -9.652344 16.328125 -9.632812 16.585938 -9.761719 L 21.089844 -12.019531 C 21.304688 -12.128906 21.667969 -12.683594 21.625 -12.878906 L 21.589844 -29.128906 L 28.558594 -15.226562 C 28.730469 -14.882812 29.308594 -14.6875 29.867188 -14.96875 L 34.585938 -17.335938 C 35.144531 -17.613281 35.335938 -18.195312 35.164062 -18.535156 Z M 35.164062 -18.535156 " />
          </g>
        </g>
      </g>
      <g fill="#e8e8e8" fill-opacity="1">
        <g transform="translate(284.643962, 293.245292)">
          <g>
            <path
              d="M -15.40625 -33.257812 L -22.480469 -25.289062 C -22.894531 -24.820312 -22.828125 -24.246094 -22.503906 -23.960938 L -18.449219 -20.359375 C -17.3125 -20.121094 -15.976562 -19.960938 -14.839844 -19.722656 C -13.296875 -19.507812 -11.816406 -19.222656 -10.273438 -19.007812 L -12.539062 -16.460938 C -12.953125 -15.992188 -12.882812 -15.417969 -12.5625 -15.132812 L 1.367188 -2.765625 C 1.652344 -2.511719 2.230469 -2.511719 2.644531 -2.980469 L 6.183594 -6.964844 C 6.566406 -7.394531 6.527344 -8.003906 6.242188 -8.257812 L -3.089844 -16.542969 L -0.222656 -19.773438 C -0.222656 -19.773438 7.488281 -28.460938 -0.121094 -35.21875 C -7.691406 -41.941406 -15.40625 -33.257812 -15.40625 -33.257812 Z M -12.300781 -26.199219 L -10.164062 -28.601562 C -9.589844 -29.25 -7.328125 -31.796875 -4.996094 -29.726562 C -3.453125 -28.355469 -4.207031 -26.203125 -5.019531 -25 Z M -12.300781 -26.199219 " />
          </g>
        </g>
      </g>
    </g>
  </svg>